{"title":"The Very First Noel (2006) DVDRip","uid":9375625,"size":287154179,"categoryP":"video","categoryS":"movies","magnet":"?xt=urn:btih:7c855daff21bfd761fdb27f69b85e838ee6b314b&amp;dn=The+Very+First+Noel+%282006%29+DVDRip&amp;tr=udp%3A%2F%2Ftracker.openbittorrent.com%3A80&amp;tr=udp%3A%2F%2Fopen.demonii.com%3A1337&amp;tr=udp%3A%2F%2Ftracker.coppersurfer.tk%3A6969&amp;tr=udp%3A%2F%2Fexodus.desync.com%3A6969","seeders":1,"leechers":0,"uploader":"7","files":-1,"time":1387616967,"description":" &lt;a href=&quot;https://forum.suprbay.org/Thread-%E2%98%AE%E2%99%8B%E2%99%82%E2%98%A0%E2%98%BA-Torrents-%E2%98%80%E2%98%81%E2%98%82%E2%98%AF%E2%9C%82?pid=13767#pid13767&quot; rel=&quot;nofollow&quot; target=&quot;_NEW&quot;&gt;https://forum.suprbay.org/Thread-%E2%98%AE%E2%99%8B%E2%99%82%E2%98%A0%E2%98%BA-Torrents-%E2%98%80%E2%98%81%E2%98%82%E2%98%AF%E2%9C%82?pid=13767#pid13767&lt;/a&gt;\n\nGenre\t, Animation, Short, Family\nActors\tSteve Twitchell, Matthew W. Taylor, Catherine Gilbert\nIMDB link\t\n &lt;a href=&quot;\nhttp://www.imdb.com/title/tt0920478/&quot; rel=&quot;nofollow&quot; target=&quot;_NEW&quot;&gt;\nhttp://www.imdb.com/title/tt0920478/&lt;/a&gt;\n\nGeneral\nComplete name                            : The Very First Noel (2006).avi\nFormat                                   : AVI\nFormat/Info                              : Audio Video Interleave\nFile size                                : 274 MiB\nDuration                                 : 23mn 25s\nOverall bit rate                         : 1 634 Kbps\n\nVideo\nID                                       : 0\nFormat                                   : MPEG-4 Visual\nFormat profile                           : Simple@L3\nFormat settings, BVOP                    : No\nFormat settings, QPel                    : No\nFormat settings, GMC                     : No warppoints\nFormat settings, Matrix                  : Default (H.263)\nCodec ID                                 : XVID\nCodec ID/Hint                            : XviD\nDuration                                 : 23mn 25s\nBit rate                                 : 1 493 Kbps\nWidth                                    : 672 pixels\nHeight                                   : 368 pixels\nDisplay aspect ratio                     : 1.85:1\nFrame rate                               : 29.970 fps\nOriginal frame rate                      : 29.000 fps\nColor space                              : YUV\nChroma subsampling                       : 4:2:0\nBit depth                                : 8 bits\nScan type                                : Progressive\nCompression mode                         : Lossy\nBits/(Pixel*Frame)                       : 0.201\nStream size                              : 250 MiB (91%)\nWriting library                          : XviD 1.2.1 (UTC 2008-12-04)\n\nAudio\nID                                       : 1\nFormat                                   : MPEG Audio\nFormat version                           : Version 1\nFormat profile                           : Layer 3\nMode                                     : Joint stereo\nMode extension                           : MS Stereo\nCodec ID                                 : 55\nCodec ID/Hint                            : MP3\nDuration                                 : 23mn 25s\nBit rate mode                            : Constant\nBit rate                                 : 128 Kbps\nChannel(s)                               : 2 channels\nSampling rate                            : 44.1 KHz\nCompression mode                         : Lossy\nStream size                              : 21.5 MiB (8%)\nAlignment                                : Aligned on interleaves\nInterleave, duration                     : 26 ms (0.78 video frame)\nWriting library                          : LAME3.98.2\n &lt;a href=&quot;\nhttp://lookpic.com/O/i2/215/AyCq6qo3.jpeg&quot; rel=&quot;nofollow&quot; target=&quot;_NEW&quot;&gt;\nhttp://lookpic.com/O/i2/215/AyCq6qo3.jpeg&lt;/a&gt;","torrent":{"xt":"urn:btih:7c855daff21bfd761fdb27f69b85e838ee6b314b","amp;dn":"The+Very+First+Noel+%282006%29+DVDRip","amp;tr":["udp%3A%2F%2Ftracker.openbittorrent.com%3A80","udp%3A%2F%2Fopen.demonii.com%3A1337","udp%3A%2F%2Ftracker.coppersurfer.tk%3A6969","udp%3A%2F%2Fexodus.desync.com%3A6969"],"infoHash":"7c855daff21bfd761fdb27f69b85e838ee6b314b","infoHashBuffer":{"type":"Buffer","data":[124,133,93,175,242,27,253,118,31,219,39,246,155,133,232,56,238,107,49,75]},"announce":[],"urlList":[]}}